<?xml version="1.0" encoding="utf-8"?>
<!-- Generator: Adobe Illustrator 16.0.0, SVG Export Plug-In . SVG Version: 6.00 Build 0)  -->
<!DOCTYPE svg PUBLIC "-//W3C//DTD SVG 1.1//EN" "http://www.w3.org/Graphics/SVG/1.1/DTD/svg11.dtd">
<svg version="1.1" id="레이어_1" xmlns="http://www.w3.org/2000/svg" xmlns:xlink="http://www.w3.org/1999/xlink" x="0px"
	 y="0px" width="875px" height="181px" viewBox="0 0 875 181" enable-background="new 0 0 875 181" xml:space="preserve">
<g>
	<g>
		<path fill="#333333" d="M272.886,52.23c-1.88,0-3.411,1.431-3.411,3.189v70.153c0,1.759,1.53,3.199,3.411,3.199h8.392
			c1.88,0,3.408-1.44,3.408-3.199V55.42c0-1.758-1.527-3.189-3.408-3.189L272.886,52.23L272.886,52.23z"/>
	</g>
	<g>
		<path fill="#333333" d="M347.811,51.377c-11.255,0-20.536,3.891-27.589,11.566c-6.581,7.286-9.922,16.553-9.922,27.554
			c0,11.002,3.351,20.286,9.949,27.586c7.033,7.651,16.308,11.535,27.563,11.535c8.511,0,16.026-2.271,22.329-6.74
			c5.962-4.196,10.284-9.989,12.854-17.231c0.341-0.975,0.189-2.056-0.413-2.894c-0.605-0.844-1.592-1.345-2.64-1.345h-8.461
			c-1.3,0-2.465,0.762-2.974,1.941c-1.626,3.76-4.028,6.67-7.349,8.883c-3.313,2.193-7.083,3.27-11.525,3.27
			c-8.316,0-14.431-2.324-18.688-7.089c-4.137-4.603-6.145-10.455-6.145-17.917c0-7.454,2.013-13.316,6.148-17.915
			c1.96-2.186,4.429-3.929,7.337-5.185l0,0c2.932-1.257,6.745-1.904,11.347-1.904c4.447,0,8.217,1.074,11.525,3.273
			c3.32,2.208,5.723,5.116,7.349,8.886c0.509,1.172,1.674,1.941,2.974,1.941h8.461c1.047,0,2.034-0.51,2.64-1.348
			c0.603-0.844,0.754-1.925,0.413-2.9c-2.571-7.241-6.894-13.036-12.844-17.222C363.838,53.646,356.318,51.377,347.811,51.377z"/>
	</g>
	<g>
		<path fill="#333333" d="M402.933,52.23c-1.766,0-3.209,1.431-3.209,3.189v7.629c0,1.76,1.443,3.19,3.209,3.19h21.385v59.334
			c0,1.759,1.438,3.199,3.205,3.199h7.988c1.771,0,3.209-1.44,3.209-3.199V66.239h21.377c1.771,0,3.205-1.43,3.205-3.19V55.42
			c0-1.758-1.435-3.189-3.205-3.189L402.933,52.23L402.933,52.23z"/>
	</g>
	<g>
		<path fill="#333333" d="M488.44,52.23c-1.769,0-3.221,1.431-3.221,3.189v39.959c0,10.142,3.13,18.461,9.29,24.736
			c6.182,6.302,14.226,9.503,23.909,9.503c9.743,0,17.825-3.201,24.01-9.503c6.164-6.275,9.294-14.604,9.294-24.736V55.42
			c0-1.758-1.44-3.189-3.221-3.189H540.5c-1.779,0-3.22,1.431-3.22,3.189v40.163c0,6.761-1.888,11.784-5.775,15.34
			c-3.399,3.078-7.686,4.579-13.085,4.579c-5.396,0-9.63-1.484-12.939-4.539c-3.913-3.639-5.819-8.67-5.819-15.38V55.42
			c0-1.758-1.443-3.189-3.213-3.189L488.44,52.23L488.44,52.23z"/>
	</g>
	<g>
		<path fill="#333333" d="M595.563,101.852h19.525l16.109,25.426c0.594,0.933,1.609,1.496,2.729,1.496h9.483
			c1.175,0,2.264-0.647,2.826-1.678c0.562-1.025,0.507-2.277-0.139-3.26l-16.185-24.697l0.761-0.296
			c0.515-0.208,1.031-0.422,1.541-0.646c8.452-3.678,12.91-10.882,12.91-20.842c0-7.689-2.536-13.864-7.53-18.348
			c-4.938-4.5-11.479-6.776-19.453-6.776h-33.792c-1.768,0-3.22,1.431-3.22,3.189v70.153c0,1.759,1.452,3.2,3.22,3.2h7.992
			c1.775,0,3.22-1.441,3.22-3.2v-23.722H595.563z M616.763,87.946h-21.198V66.132h21.624c4.3,0,7.586,1.014,10.063,3.107
			c2.361,1.986,3.455,4.567,3.455,8.115c0,2.155-0.382,3.884-1.133,5.133l0,0C627.332,86.156,623.148,87.946,616.763,87.946z"/>
	</g>
	<g>
		<path fill="#333333" d="M674.868,52.23c-1.759,0-3.196,1.431-3.196,3.189v70.153c0,1.759,1.438,3.199,3.196,3.199h51.603
			c1.766,0,3.188-1.44,3.188-3.199v-7.629c0-1.76-1.424-3.189-3.188-3.189h-40.466V97.502h35.802c1.765,0,3.199-1.434,3.199-3.189
			v-7.735c0-1.76-1.436-3.191-3.199-3.191h-35.802V66.239h40.466c1.766,0,3.188-1.43,3.188-3.19V55.42
			c0-1.758-1.424-3.189-3.188-3.189L674.868,52.23L674.868,52.23z"/>
	</g>
	<g>
		<path fill="#333333" d="M752.218,101.408c-0.894,0-1.76,0.379-2.369,1.041c-0.605,0.665-0.911,1.556-0.819,2.443
			c0.712,7.645,3.773,13.658,9.083,17.885c5.734,4.529,14.006,6.841,24.584,6.841c9.373,0,16.899-1.943,22.369-5.782
			c5.81-4.082,8.767-10.021,8.767-17.654c0-6.55-3.113-11.975-9.011-15.691c-2.513-1.637-5.391-2.993-8.55-4.027
			c-2.994-0.982-6.063-1.858-9.131-2.612l-8.9-2.17c-2.748-0.669-5.217-1.446-7.338-2.299c-1.875-0.762-3.37-1.675-4.45-2.718
			c-0.986-0.959-1.108-1.667-1.108-2.116c0-1.272,0.173-2.421,0.531-3.519c0.27-0.791,0.774-1.522,1.552-2.237l0.425-0.373
			c1.008-0.814,2.491-1.554,4.405-2.185c2.117-0.701,4.83-1.059,8.041-1.059c3.257,0,5.994,0.32,8.143,0.944
			c7.314,2.049,8.623,6.045,8.969,8.87c0.201,1.599,1.565,2.802,3.192,2.802h8.199c0.875,0,1.726-0.365,2.335-0.99
			c0.599-0.631,0.917-1.492,0.874-2.36c-0.335-6.571-3.11-12.007-8.267-16.156c-5.479-4.584-13.168-6.906-22.861-6.906
			c-9.597,0-16.986,2.072-21.962,6.137c-5.166,4.218-7.778,9.753-7.778,16.454c0,4.881,1.52,8.871,4.511,11.839
			c2.673,2.665,6.046,4.82,10.01,6.425c3.736,1.509,7.816,2.756,12.121,3.705c4.08,0.91,7.918,1.885,11.401,2.918
			c3.252,0.959,5.956,2.172,8.044,3.595c1.511,1.034,2.18,2.286,2.18,4.049c0,3.955-1.723,9.216-16.604,9.216
			c-5.725,0-10.307-0.959-13.617-2.855c-3.491-2.018-5.226-4.697-5.444-8.451c-0.1-1.684-1.513-2.998-3.205-2.998h-8.319V101.408z"
			/>
	</g>
	<g>
		<path fill="#333333" d="M186.94,52.23c-1.884,0-3.41,1.431-3.41,3.189l-0.049,117.951c0,4.204,3.414,7.629,7.606,7.629H875V0H0
			v181h78.921c2.901,0,5.586-1.695,6.846-4.311l55.217-114.615c1.618-3.365,0.557-7.409-2.522-9.608
			c-1.223-0.875-2.776-1.331-4.492-1.331H64.481c-1.822,0-3.308,1.483-3.308,3.311v8.619c0,1.827,1.485,3.312,3.308,3.312h57.537
			l-0.463,0.952L74.147,165.75H15.208V15.243h844.588V165.75H198.693l0.046-61.989h21.547c8.7,0,15.755-2.353,20.978-6.973
			c5.273-4.67,7.948-10.997,7.948-18.793c0-7.721-2.658-14.032-7.899-18.753c-5.255-4.651-12.331-7.011-21.027-7.011L186.94,52.23
			L186.94,52.23z M219.729,89.956H198.74V66.132h20.989c4.884,0,8.533,1.058,10.842,3.138c2.309,2.078,3.433,4.948,3.433,8.771
			c0,3.836-1.124,6.707-3.433,8.778C228.261,88.905,224.612,89.956,219.729,89.956z"/>
	</g>
</g>
</svg>
