<?xml version="1.0" encoding="utf-8"?>
<!-- Generator: Adobe Illustrator 16.0.0, SVG Export Plug-In . SVG Version: 6.00 Build 0)  -->
<!DOCTYPE svg PUBLIC "-//W3C//DTD SVG 1.1//EN" "http://www.w3.org/Graphics/SVG/1.1/DTD/svg11.dtd">
<svg version="1.1" id="레이어_1" xmlns="http://www.w3.org/2000/svg" xmlns:xlink="http://www.w3.org/1999/xlink" x="0px"
	 y="0px" width="640px" height="640px" viewBox="0 0 640 640" enable-background="new 0 0 640 640" xml:space="preserve">
<g>
	<g>
		<path fill="#FFFFFF" d="M219.875,296.78c-1.144,0-2.074,0.868-2.074,1.936v42.564c0,1.067,0.931,1.942,2.074,1.942h5.104
			c1.144,0,2.073-0.875,2.073-1.942v-42.564c0-1.067-0.929-1.936-2.073-1.936H219.875z"/>
	</g>
	<g>
		<path fill="#FFFFFF" d="M265.447,296.263c-6.845,0-12.491,2.361-16.78,7.018c-4.003,4.42-6.035,10.043-6.035,16.718
			c0,6.676,2.037,12.309,6.051,16.737c4.278,4.643,9.919,6.999,16.764,6.999c5.177,0,9.749-1.376,13.583-4.089
			c3.626-2.546,6.255-6.062,7.818-10.456c0.208-0.591,0.116-1.246-0.251-1.755c-0.368-0.513-0.969-0.816-1.606-0.816h-5.146
			c-0.791,0-1.499,0.463-1.809,1.18c-0.989,2.28-2.45,4.046-4.469,5.389c-2.015,1.331-4.308,1.983-7.01,1.983
			c-5.059,0-8.777-1.41-11.367-4.301c-2.515-2.792-3.737-6.344-3.737-10.871c0-4.522,1.224-8.08,3.74-10.869
			c1.192-1.326,2.693-2.384,4.462-3.146l0,0c1.783-0.763,4.103-1.155,6.902-1.155c2.705,0,4.998,0.651,7.01,1.986
			c2.019,1.34,3.48,3.104,4.469,5.392c0.31,0.711,1.018,1.177,1.809,1.177h5.146c0.637,0,1.238-0.309,1.606-0.817
			c0.367-0.512,0.458-1.168,0.251-1.76c-1.563-4.393-4.192-7.909-7.812-10.449C275.196,297.639,270.622,296.263,265.447,296.263z"/>
	</g>
	<g>
		<path fill="#FFFFFF" d="M298.975,296.78c-1.074,0-1.952,0.868-1.952,1.936v4.628c0,1.067,0.878,1.936,1.952,1.936h13.006v36
			c0,1.067,0.875,1.942,1.949,1.942h4.859c1.078,0,1.952-0.875,1.952-1.942v-36h13.003c1.077,0,1.949-0.868,1.949-1.936v-4.628
			c0-1.067-0.872-1.936-1.949-1.936H298.975z"/>
	</g>
	<g>
		<path fill="#FFFFFF" d="M350.983,296.78c-1.074,0-1.958,0.868-1.958,1.936v24.245c0,6.152,1.903,11.2,5.65,15.008
			c3.759,3.824,8.652,5.766,14.542,5.766c5.927,0,10.842-1.941,14.604-5.766c3.75-3.808,5.654-8.86,5.654-15.008v-24.245
			c0-1.067-0.877-1.936-1.96-1.936h-4.867c-1.083,0-1.958,0.868-1.958,1.936v24.368c0,4.103-1.148,7.15-3.514,9.307
			c-2.068,1.869-4.675,2.779-7.959,2.779c-3.282,0-5.856-0.9-7.871-2.754c-2.38-2.208-3.538-5.261-3.538-9.332v-24.368
			c0-1.067-0.879-1.936-1.955-1.936H350.983z"/>
	</g>
	<g>
		<path fill="#FFFFFF" d="M416.14,326.887h11.876l9.798,15.428c0.361,0.565,0.98,0.908,1.661,0.908h5.768
			c0.715,0,1.377-0.394,1.72-1.019c0.341-0.622,0.308-1.382-0.085-1.978l-9.844-14.985l0.463-0.179
			c0.313-0.127,0.627-0.257,0.938-0.393c5.14-2.231,7.852-6.603,7.852-12.646c0-4.665-1.542-8.412-4.58-11.133
			c-3.004-2.729-6.983-4.111-11.832-4.111H409.32c-1.075,0-1.958,0.868-1.958,1.936v42.564c0,1.067,0.883,1.942,1.958,1.942h4.861
			c1.08,0,1.958-0.875,1.958-1.942V326.887z M429.034,318.451H416.14v-13.235h13.153c2.614,0,4.613,0.615,6.12,1.885
			c1.436,1.206,2.102,2.771,2.102,4.924c0,1.308-0.232,2.356-0.689,3.114l0,0C435.463,317.364,432.918,318.451,429.034,318.451z"/>
	</g>
	<g>
		<path fill="#FFFFFF" d="M464.376,296.78c-1.07,0-1.944,0.868-1.944,1.936v42.564c0,1.067,0.874,1.942,1.944,1.942h31.387
			c1.073,0,1.938-0.875,1.938-1.942v-4.629c0-1.067-0.865-1.935-1.938-1.935h-24.613v-10.468h21.776
			c1.072,0,1.945-0.871,1.945-1.936v-4.694c0-1.068-0.873-1.936-1.945-1.936h-21.776V305.28h24.613c1.073,0,1.938-0.868,1.938-1.936
			v-4.628c0-1.067-0.865-1.936-1.938-1.936H464.376z"/>
	</g>
	<g>
		<path fill="#FFFFFF" d="M511.423,326.618c-0.544,0-1.07,0.23-1.441,0.632c-0.369,0.403-0.555,0.944-0.498,1.483
			c0.433,4.638,2.296,8.286,5.523,10.851c3.489,2.749,8.52,4.15,14.953,4.15c5.701,0,10.279-1.179,13.605-3.508
			c3.534-2.476,5.333-6.08,5.333-10.712c0-3.974-1.894-7.265-5.481-9.521c-1.527-0.993-3.277-1.816-5.2-2.444
			c-1.821-0.596-3.688-1.127-5.553-1.584l-5.414-1.316c-1.671-0.407-3.173-0.878-4.463-1.396c-1.142-0.462-2.05-1.017-2.707-1.649
			c-0.6-0.582-0.674-1.012-0.674-1.284c0-0.772,0.104-1.469,0.322-2.135c0.164-0.48,0.472-0.923,0.944-1.358l0.259-0.226
			c0.611-0.494,1.515-0.943,2.679-1.326c1.288-0.426,2.938-0.643,4.891-0.643c1.981,0,3.646,0.194,4.952,0.573
			c4.45,1.243,5.245,3.667,5.455,5.381c0.123,0.971,0.953,1.7,1.942,1.7h4.987c0.531,0,1.049-0.221,1.42-0.601
			c0.364-0.383,0.559-0.904,0.532-1.432c-0.204-3.987-1.893-7.285-5.028-9.803c-3.334-2.781-8.01-4.19-13.905-4.19
			c-5.837,0-10.332,1.257-13.358,3.723c-3.142,2.559-4.73,5.918-4.73,9.983c0,2.961,0.923,5.382,2.743,7.183
			c1.625,1.617,3.678,2.924,6.088,3.898c2.272,0.915,4.754,1.672,7.373,2.249c2.481,0.551,4.815,1.143,6.935,1.77
			c1.978,0.581,3.623,1.317,4.893,2.181c0.918,0.627,1.326,1.388,1.326,2.458c0,2.398-1.049,5.59-10.1,5.59
			c-3.482,0-6.269-0.581-8.283-1.732c-2.123-1.224-3.178-2.851-3.311-5.128c-0.061-1.021-0.921-1.819-1.95-1.819H511.423z"/>
	</g>
	<g>
		<path fill="#FFFFFF" d="M167.601,296.78c-1.146,0-2.075,0.868-2.075,1.936l-0.03,71.566c0,2.55,2.076,4.628,4.626,4.628h415.981
			V265.09H53.896v109.82h48.002c1.765,0,3.397-1.028,4.164-2.615l33.585-69.542c0.984-2.042,0.339-4.495-1.534-5.83
			c-0.744-0.53-1.689-0.808-2.733-0.808H93.116c-1.108,0-2.012,0.9-2.012,2.009v5.229c0,1.108,0.904,2.01,2.012,2.01h34.996
			l-0.282,0.578l-28.835,59.717H63.146v-91.32h513.709v91.32H174.749l0.028-37.612h13.106c5.292,0,9.583-1.428,12.76-4.23
			c3.207-2.833,4.834-6.672,4.834-11.403c0-4.684-1.617-8.513-4.805-11.378c-3.196-2.822-7.5-4.254-12.789-4.254H167.601z
			 M187.543,319.67h-12.766v-14.455h12.766c2.971,0,5.19,0.642,6.595,1.904c1.404,1.26,2.088,3.002,2.088,5.322
			c0,2.328-0.684,4.069-2.088,5.326C192.733,319.032,190.514,319.67,187.543,319.67z"/>
	</g>
</g>
</svg>
