<?xml version="1.0" encoding="utf-8"?>
<!-- Generator: Adobe Illustrator 16.0.0, SVG Export Plug-In . SVG Version: 6.00 Build 0)  -->
<!DOCTYPE svg PUBLIC "-//W3C//DTD SVG 1.1//EN" "http://www.w3.org/Graphics/SVG/1.1/DTD/svg11.dtd">
<svg version="1.1" id="Layer_1" xmlns="http://www.w3.org/2000/svg" xmlns:xlink="http://www.w3.org/1999/xlink" x="0px" y="0px"
	 width="256px" height="256px" viewBox="0 0 256 256" enable-background="new 0 0 256 256" xml:space="preserve">
<g>
	<polygon points="100.007,125.491 111.993,125.491 106,108.466 	"/>
	<path className="kakao-icon" d="M128,36C70.562,36,24,72.713,24,118c0,29.279,19.466,54.971,48.748,69.477c-1.593,5.494-10.237,35.344-10.581,37.689
		c0,0-0.207,1.762,0.934,2.434s2.483,0.15,2.483,0.15c3.272-0.457,37.943-24.811,43.944-29.04c5.995,0.849,12.168,1.29,18.472,1.29
		c57.438,0,104-36.712,104-82C232,72.713,185.438,36,128,36z M76.5,140.895c0,3.16-2.691,5.73-6,5.73s-6-2.57-6-5.73V105.25h-9.362
		c-3.247,0-5.888-2.636-5.888-5.875s2.642-5.875,5.888-5.875h30.724c3.247,0,5.888,2.636,5.888,5.875s-2.642,5.875-5.888,5.875H76.5
		V140.895z M126.926,145.721c-1.175,0.541-2.493,0.826-3.814,0.826c-2.502,0-4.416-1.016-4.993-2.65l-2.971-7.777l-18.296-0.001
		l-2.973,7.782c-0.575,1.631-2.488,2.646-4.99,2.646c-1.321,0-2.641-0.285-3.814-0.828c-1.654-0.763-3.244-2.861-1.422-8.52
		l14.352-37.776c1.011-2.873,4.082-5.833,7.99-5.922c3.919,0.088,6.99,3.049,8.003,5.928l14.346,37.758
		C130.17,142.859,128.58,144.959,126.926,145.721z M157.25,145.75H138c-3.171,0-5.75-2.469-5.75-5.5V99.5c0-3.309,2.748-6,6.125-6
		s6.125,2.691,6.125,6v35.25h12.75c3.171,0,5.75,2.469,5.75,5.5S160.421,145.75,157.25,145.75z M204.219,141.232
		c-0.222,1.588-1.049,2.992-2.328,3.957c-1.05,0.793-2.297,1.211-3.608,1.211c-1.902,0-3.648-0.868-4.794-2.385l-14.07-18.645
		l-2.082,2.082v13.091c-0.002,3.312-2.693,6.003-6.002,6.003s-6-2.691-6-6V99.5c0-3.309,2.691-6,6-6s6,2.691,6,6v12.896l16.74-16.74
		c0.861-0.861,2.044-1.335,3.328-1.335c1.498,0,3.002,0.646,4.129,1.772c1.051,1.05,1.678,2.401,1.764,3.804
		c0.087,1.415-0.384,2.712-1.324,3.653l-13.673,13.671l14.769,19.566C204.033,138.066,204.441,139.645,204.219,141.232z"/>
</g>
</svg>
