<?xml version="1.0" encoding="iso-8859-1"?>
<!-- Generator: Adobe Illustrator 17.1.0, SVG Export Plug-In . SVG Version: 6.00 Build 0)  -->
<!DOCTYPE svg PUBLIC "-//W3C//DTD SVG 1.1//EN" "http://www.w3.org/Graphics/SVG/1.1/DTD/svg11.dtd">
<svg version="1.1" id="Capa_1" xmlns="http://www.w3.org/2000/svg" xmlns:xlink="http://www.w3.org/1999/xlink" x="0px" y="0px"
	 viewBox="0 0 512 512" style="enable-background:new 0 0 512 512;" xml:space="preserve">
<g>
	<path d="M176.048,239.544c0,51.788,72.907,93.661,76.011,95.418c1.223,0.692,2.582,1.038,3.941,1.038s2.719-0.346,3.941-1.038
		c3.104-1.757,76.011-43.63,76.011-95.418c0-26.231-21.29-47.572-47.458-47.572c-12.191,0-23.777,4.705-32.495,12.921
		c-8.717-8.216-20.304-12.921-32.495-12.921C197.337,191.972,176.048,213.313,176.048,239.544z M223.505,207.972
		c10.331,0,20.014,5.113,25.902,13.679c1.492,2.171,3.958,3.468,6.592,3.468s5.1-1.297,6.592-3.468
		c5.889-8.565,15.572-13.679,25.902-13.679c17.346,0,31.458,14.163,31.458,31.572c0,36.438-49.473,70.053-63.959,79.112
		c-6.1-3.805-18.391-11.959-30.625-22.942c-15.201-13.646-33.32-34.469-33.32-56.17C192.048,222.135,206.16,207.972,223.505,207.972
		z"/>
	<path d="M148.647,96.812c9.533,8.559,18.997,13.953,19.395,14.179c1.223,0.692,2.582,1.038,3.941,1.038s2.719-0.346,3.941-1.038
		c0.398-0.226,9.862-5.62,19.395-14.179c13.701-12.3,20.648-24.756,20.648-37.021c0-15.324-12.441-27.791-27.733-27.791
		c-5.913,0-11.582,1.893-16.251,5.279C167.315,33.893,161.646,32,155.733,32C140.441,32,128,44.467,128,59.791
		C128,72.056,134.947,84.512,148.647,96.812z M155.733,48c3.849,0,7.459,1.909,9.658,5.107c1.493,2.171,3.958,3.468,6.592,3.468
		s5.1-1.297,6.592-3.468c2.199-3.198,5.81-5.107,9.659-5.107c6.47,0,11.733,5.289,11.733,11.791c0,9.309-8.229,18.695-15.131,24.931
		c-4.777,4.315-9.625,7.756-12.877,9.899C161.845,87.96,144,73.407,144,59.791C144,53.289,149.264,48,155.733,48z"/>
	<path d="M363.318,415.23c-9.533-8.551-18.997-13.94-19.395-14.165c-2.444-1.383-5.434-1.383-7.878,0
		c-0.398,0.225-9.862,5.614-19.395,14.165C302.948,427.521,296,439.969,296,452.227C296,467.541,308.441,480,323.733,480
		c5.913,0,11.582-1.892,16.25-5.276c4.669,3.384,10.338,5.276,16.251,5.276c15.292,0,27.733-12.459,27.733-27.773
		C383.968,439.969,377.021,427.521,363.318,415.23z M356.235,464c-3.851,0-7.462-1.907-9.661-5.102
		c-1.493-2.169-3.957-3.465-6.59-3.465s-5.098,1.296-6.59,3.465c-2.199,3.195-5.81,5.102-9.66,5.102
		c-6.47,0-11.733-5.281-11.733-11.773c0-9.296,8.227-18.672,15.129-24.901c4.766-4.302,9.604-7.734,12.855-9.876
		c3.252,2.142,8.09,5.575,12.855,9.876c6.902,6.229,15.129,15.604,15.129,24.901C367.968,458.719,362.705,464,356.235,464z"/>
	<path d="M376,0H136c-22.056,0-40,17.944-40,40v432c0,22.056,17.944,40,40,40h240c22.056,0,40-17.944,40-40V40
		C416,17.944,398.056,0,376,0z M400,472c0,13.234-10.766,24-24,24H136c-13.234,0-24-10.766-24-24V40c0-13.233,10.766-24,24-24h240
		c13.234,0,24,10.767,24,24V472z"/>
	<path d="M272,456H152V120c0-4.418-3.582-8-8-8s-8,3.582-8,8v344c0,4.418,3.582,8,8,8h128c4.418,0,8-3.582,8-8S276.418,456,272,456z
		"/>
	<path d="M240,56h120v336c0,4.418,3.582,8,8,8s8-3.582,8-8V48c0-4.418-3.582-8-8-8H240c-4.418,0-8,3.582-8,8S235.582,56,240,56z"/>
</g>
<g>
</g>
<g>
</g>
<g>
</g>
<g>
</g>
<g>
</g>
<g>
</g>
<g>
</g>
<g>
</g>
<g>
</g>
<g>
</g>
<g>
</g>
<g>
</g>
<g>
</g>
<g>
</g>
<g>
</g>
</svg>
