<?xml version="1.0" encoding="utf-8"?>
<!-- Generator: Adobe Illustrator 16.0.0, SVG Export Plug-In . SVG Version: 6.00 Build 0)  -->
<!DOCTYPE svg PUBLIC "-//W3C//DTD SVG 1.1//EN" "http://www.w3.org/Graphics/SVG/1.1/DTD/svg11.dtd">
<svg version="1.1" id="레이어_1" xmlns="http://www.w3.org/2000/svg" xmlns:xlink="http://www.w3.org/1999/xlink" x="0px"
	 y="0px" width="400px" height="400px" viewBox="0 0 400 400" enable-background="new 0 0 400 400" xml:space="preserve">
<g>
	<circle fill="#4B709A" cx="200.03" cy="199.688" r="196.021"/>
	<g>
		<path fill="#FFFFFF" d="M270.303,44.729c0,0-7.466,17.292-18.849,18.847c0,0-35.517,8.646-41.237,26.186
			c0,0-3.235,10.326,0,21.771c0,0-6.346,9.579-7.341,11.818c0,0-1.119-22.144-21.148-26.249c0,0-9.952,0.621-15.674-11.072
			c0,0-9.082,16.919,0.871,34.086c0,0,11.57,16.793,29.732,5.224c0,0-0.498-4.602-8.708-6.841c0,0-6.718-2.115-6.718-6.718
			c0,0,6.469,5.35,12.066,5.35c0,0,6.096,0.746,6.719,8.458c0,0-5.972,14.555-3.111,43.168c0,0,9.393-0.498,11.351-0.964
			c0,0-5.878-33.372,2.085-46.931c0,0,7.465-17.043,27.989-25.751c0,0,5.391-2.861,7.381-6.51c0,0,0.333,9.744-9.742,13.352
			c0,0-17.104,7.713-19.687,18.411c0,0,7.619,8.833,23.417,5.349c0,0,15.925-3.732,29.731-23.388
			C269.431,102.327,282.367,75.083,270.303,44.729z"/>
		<path fill="#FFFFFF" d="M322.425,244.394c-3.731-6.594-37.195-3.856-37.195-3.856c-16.048,1.12-37.817,1.12-37.817,1.12
			c-3.606,0-16.67-6.717-16.67-6.717c-2.736-0.623-13.187-12.068-13.187-12.068c-11.445-11.445-9.828-27.741-9.828-27.741
			c28.737-8.958,24.508-18.91,24.508-18.91c-0.997-8.335-14.183-4.728-14.183-4.728c-16.421,4.354-55.789,2.115-55.789,2.115
			c-46.377,2.986-45.016,7.548-45.016,7.548c-8.543,4.561-13.146,12.355-13.146,12.355c-18.619,21.563-35.953,60.459-35.953,60.459
			c6.469,8.459,35.953,28.737,35.953,28.737c1.617,0,13.975-7.754,13.975-7.754c12.937-11.112,28.197-10.782,28.197-10.782
			c6.304,0.996,59.216,3.65,59.216,3.65c9.787-0.995,52.62-0.291,52.62-0.291c2.364-0.622,23.014-3.525,23.014-3.525
			c24.217-0.663,33.84-5.805,33.84-5.805C328.646,252.852,322.425,244.394,322.425,244.394z M188.944,213.916
			c0-1.246-22.89-11.072-22.89-11.072c9.578,0,28.861-4.354,28.861-4.354C194.915,200.48,188.944,213.916,188.944,213.916z"/>
		<path fill="#FFFFFF" d="M231.861,232.823c0,0,14.557,5.972,39.809,2.986c0,0,49.387-3.357,51.252,3.607
			c0,0,12.192-7.216,7.715-16.171c0,0-5.846-9.207-35.33,0.745c0,0-25.628,7.713-33.339,8.832
			C261.968,232.823,236.562,233.171,231.861,232.823z"/>
		<path fill="#FFFFFF" d="M231.861,229.84c0,0,22.808-0.665,25.377-1.162c0,0,43.625-11.277,47.522-11.776
			c0,0,1.992-5.142-8.292-6.637c0,0-10.949-0.662-23.473,6.055c0,0-16.669,6.553-20.816,7.881
			C252.18,224.2,236.174,229.008,231.861,229.84z"/>
		<path fill="#FFFFFF" d="M230.08,227.724c0,0,39.537-13.87,42.15-15.363c0,0-0.313-4.106-9.269-1.307
			c0,0-16.918,8.646-19.282,9.766L230.08,227.724z"/>
	</g>
	<g>
		<path fill="#FFFFFF" d="M150.942,329.726h-17.971v15.729h-6.719v-15.729h-17.665v-5.346h42.354V329.726z M110.573,316.439
			c9.571-1.17,14.559-5.753,15.221-10.233h-13.49v-5.345h34.769v5.345h-13.287c0.663,4.48,5.6,9.063,15.12,10.233l-2.393,5.244
			c-8.196-1.121-13.948-4.634-16.748-9.42c-2.8,4.786-8.552,8.299-16.748,9.42L110.573,316.439z"/>
		<path fill="#FFFFFF" d="M197.783,321.632v5.293h-17.257v7.994h-6.72v-7.994h-18.479v-5.293H197.783z M166.985,339.194h26.114
			v5.346h-32.834v-13.593h6.72V339.194z M192.387,317.915H160.57v-17.461h31.817V317.915z M185.769,305.697h-18.581v6.923h18.581
			V305.697z"/>
		<path fill="#FFFFFF" d="M226.908,324.481c-4.937-1.68-8.246-4.886-10.231-9.06c-2.089,4.784-5.804,8.552-11.353,10.435
			l-3.512-5.396c7.992-2.546,11.301-8.909,11.301-15.373v-4.176h6.82v3.868c0,6.313,3.055,12.015,10.488,14.407L226.908,324.481z
			 M241.62,336.292c0,5.702-6.108,9.062-16.035,9.062c-9.977,0-16.085-3.359-16.085-9.062c0-5.803,6.108-9.163,16.085-9.163
			C235.512,327.129,241.62,330.489,241.62,336.292z M234.901,336.292c0-2.697-3.206-3.971-9.316-3.971
			c-6.159,0-9.367,1.273-9.367,3.971c0,2.647,3.208,3.921,9.367,3.921C231.695,340.213,234.901,338.939,234.901,336.292z
			 M234.697,312.468h-8.552v-5.447h8.552v-8.552h6.72v27.49h-6.72V312.468z"/>
		<path fill="#FFFFFF" d="M291.364,319.442v5.295h-42.202v-5.295h15.629v-8.196h6.721v8.196H291.364z M286.631,336.547
			c0,5.447-6.518,8.807-16.648,8.807c-10.077,0-16.594-3.359-16.594-8.807c0-5.498,6.517-8.857,16.594-8.857
			C280.113,327.689,286.631,331.049,286.631,336.547z M278.434,316.287c1.069-4.175,1.222-7.332,1.222-10.438h-25.759v-5.294h32.479
			v3.869c0,3.717,0,7.688-1.323,12.522L278.434,316.287z M279.961,336.547c0-2.545-3.615-3.817-9.979-3.817
			c-6.312,0-9.926,1.272-9.926,3.817c0,2.494,3.614,3.768,9.926,3.768C276.346,340.314,279.961,339.041,279.961,336.547z"/>
	</g>
</g>
</svg>
