<?xml version="1.0" encoding="utf-8"?>
<!-- Generator: Adobe Illustrator 16.0.0, SVG Export Plug-In . SVG Version: 6.00 Build 0)  -->
<!DOCTYPE svg PUBLIC "-//W3C//DTD SVG 1.1//EN" "http://www.w3.org/Graphics/SVG/1.1/DTD/svg11.dtd">
<svg version="1.1" id="레이어_1" xmlns="http://www.w3.org/2000/svg" xmlns:xlink="http://www.w3.org/1999/xlink" x="0px"
	 y="0px" width="400px" height="400px" viewBox="0 0 400 400" enable-background="new 0 0 400 400" xml:space="preserve">
<circle fill="#4B709A" cx="199.965" cy="199.688" r="196.021"/>
<g>
	<path fill="#FFFFFF" d="M263.97,47.042c0,0-6.786,15.718-17.132,17.131c0,0-32.282,7.858-37.483,23.802c0,0-2.938,9.385,0,19.788
		c0,0-5.767,8.707-6.672,10.742c0,0-1.017-20.127-19.222-23.859c0,0-9.046,0.565-14.247-10.063c0,0-8.255,15.378,0.791,30.982
		c0,0,10.517,15.264,27.025,4.748c0,0-0.453-4.183-7.915-6.218c0,0-6.106-1.923-6.106-6.106c0,0,5.88,4.862,10.967,4.862
		c0,0,5.541,0.679,6.107,7.688c0,0-5.428,13.23-2.828,39.237c0,0,8.538-0.453,10.318-0.876c0,0-5.343-30.333,1.895-42.658
		c0,0,6.787-15.492,25.441-23.406c0,0,4.899-2.601,6.708-5.917c0,0,0.304,8.856-8.854,12.136c0,0-15.546,7.011-17.894,16.735
		c0,0,6.924,8.029,21.284,4.862c0,0,14.475-3.392,27.023-21.258C263.179,99.396,274.937,74.633,263.97,47.042z"/>
	<path fill="#FFFFFF" d="M311.346,228.527c-3.39-5.994-33.807-3.504-33.807-3.504c-14.588,1.018-34.374,1.018-34.374,1.018
		c-3.278,0-15.152-6.105-15.152-6.105c-2.487-0.566-11.985-10.97-11.985-10.97c-10.404-10.403-8.934-25.215-8.934-25.215
		c26.119-8.143,22.276-17.188,22.276-17.188c-0.907-7.576-12.893-4.298-12.893-4.298c-14.926,3.958-50.708,1.922-50.708,1.922
		c-42.155,2.715-40.918,6.861-40.918,6.861c-7.765,4.146-11.949,11.23-11.949,11.23c-16.924,19.6-32.68,54.953-32.68,54.953
		c5.88,7.689,32.68,26.121,32.68,26.121c1.47,0,12.703-7.049,12.703-7.049c11.759-10.1,25.629-9.799,25.629-9.799
		c5.73,0.904,53.824,3.317,53.824,3.317c8.896-0.905,47.828-0.265,47.828-0.265c2.15-0.565,20.92-3.204,20.92-3.204
		c22.012-0.603,30.758-5.276,30.758-5.276C317.002,236.215,311.346,228.527,311.346,228.527z M190.019,200.824
		c0-1.132-20.805-10.064-20.805-10.064c8.705,0,26.233-3.957,26.233-3.957C195.447,188.612,190.019,200.824,190.019,200.824z"/>
	<path fill="#FFFFFF" d="M229.03,218.01c0,0,13.23,5.428,36.183,2.714c0,0,44.891-3.051,46.585,3.278c0,0,11.082-6.559,7.013-14.697
		c0,0-5.314-8.37-32.113,0.677c0,0-23.294,7.011-30.304,8.027C256.394,218.01,233.303,218.326,229.03,218.01z"/>
	<path fill="#FFFFFF" d="M229.03,215.298c0,0,20.729-0.604,23.064-1.057c0,0,39.652-10.249,43.194-10.702
		c0,0,1.812-4.674-7.536-6.033c0,0-9.951-0.602-21.335,5.503c0,0-15.15,5.956-18.921,7.163
		C247.497,210.173,232.949,214.542,229.03,215.298z"/>
	<path fill="#FFFFFF" d="M227.41,213.376c0,0,35.938-12.608,38.312-13.964c0,0-0.285-3.733-8.425-1.188
		c0,0-15.377,7.857-17.525,8.877L227.41,213.376z"/>
</g>
<g>
	<path fill="#FFFFFF" d="M143.691,316.756h-20.625v18.052h-7.711v-18.052H95.082v-6.136h48.607v6.136H143.691z M97.362,301.508
		c10.984-1.343,16.708-6.604,17.468-11.744H99.348v-6.135h39.903v6.135h-15.25c0.761,5.141,6.427,10.401,17.352,11.744l-2.746,6.019
		c-9.406-1.286-16.008-5.321-19.221-10.812c-3.214,5.49-9.815,9.525-19.221,10.812L97.362,301.508z"/>
	<path fill="#FFFFFF" d="M197.448,307.468v6.073h-19.805v9.175h-7.712v-9.175h-21.208v-6.073H197.448z M162.103,327.622h29.969
		v6.135h-37.681v-15.599h7.712V327.622z M191.256,303.202h-36.515v-20.04h36.515V303.202L191.256,303.202z M183.661,289.179h-21.325
		v7.945h21.325V289.179z"/>
	<path fill="#FFFFFF" d="M230.874,310.736c-5.667-1.93-9.464-5.606-11.741-10.397c-2.397,5.49-6.662,9.813-13.029,11.974
		l-4.031-6.19c9.173-2.921,12.97-10.226,12.97-17.644v-4.792h7.827v4.438c0,7.246,3.506,13.79,12.036,16.534L230.874,310.736z
		 M247.759,324.291c0,6.545-7.012,10.4-18.403,10.4c-11.45,0-18.46-3.854-18.46-10.4c0-6.66,7.01-10.516,18.46-10.516
		C240.747,313.775,247.759,317.631,247.759,324.291z M240.047,324.291c0-3.094-3.678-4.558-10.691-4.558
		c-7.068,0-10.75,1.461-10.75,4.558c0,3.039,3.682,4.501,10.75,4.501C236.369,328.792,240.047,327.33,240.047,324.291z
		 M239.814,296.949h-9.818v-6.251h9.818v-9.815h7.711v31.55h-7.711V296.949z"/>
	<path fill="#FFFFFF" d="M304.849,304.953v6.076h-48.435v-6.076h17.938v-9.406h7.712v9.406H304.849z M299.415,324.583
		c0,6.253-7.479,10.108-19.106,10.108c-11.563,0-19.044-3.854-19.044-10.108c0-6.31,7.48-10.164,19.044-10.164
		C291.937,314.419,299.415,318.273,299.415,324.583z M290.008,301.332c1.227-4.792,1.403-8.415,1.403-11.979h-29.563v-6.076h37.275
		v4.44c0,4.267,0,8.822-1.519,14.37L290.008,301.332z M291.761,324.583c0-2.919-4.148-4.38-11.452-4.38
		c-7.244,0-11.391,1.461-11.391,4.38c0,2.863,4.146,4.324,11.391,4.324C287.612,328.907,291.761,327.446,291.761,324.583z"/>
</g>
</svg>
